<?xml version="1.0" standalone="no"?>
<!DOCTYPE svg PUBLIC "-//W3C//DTD SVG 20010904//EN"
 "http://www.w3.org/TR/2001/REC-SVG-20010904/DTD/svg10.dtd">
<svg version="1.0" xmlns="http://www.w3.org/2000/svg"
 width="700.000000pt" height="700.000000pt" viewBox="0 0 700.000000 700.000000"
 preserveAspectRatio="xMidYMid meet">
<metadata>
Created by potrace 1.14, written by Peter Selinger 2001-2017
</metadata>
<g transform="translate(0.000000,700.000000) scale(0.100000,-0.100000)"
fill="#000000" stroke="none">
<path d="M3278 6996 c-1 -2 -42 -6 -89 -10 -47 -4 -95 -8 -105 -10 -10 -2 -45
-7 -78 -11 -101 -12 -215 -35 -380 -76 -296 -75 -599 -199 -881 -362 -103 -60
-265 -165 -315 -204 -8 -6 -51 -40 -95 -74 -426 -331 -813 -825 -1020 -1299
-25 -58 -50 -114 -55 -125 -45 -93 -150 -427 -176 -560 -2 -11 -10 -54 -19
-95 -29 -146 -35 -191 -52 -370 -15 -162 -8 -591 12 -711 2 -13 6 -46 9 -74 9
-78 22 -152 51 -285 21 -96 91 -339 114 -395 5 -11 29 -74 55 -141 55 -142
169 -372 246 -497 30 -48 60 -95 65 -105 25 -44 135 -194 213 -291 163 -201
342 -378 552 -546 92 -74 370 -265 386 -265 4 0 15 -6 23 -14 46 -40 413 -212
571 -268 83 -29 268 -87 293 -92 12 -2 60 -13 107 -24 109 -27 200 -44 299
-58 25 -3 57 -8 71 -10 163 -25 682 -25 842 1 13 2 46 7 73 10 71 10 87 13
115 18 14 3 43 8 65 12 22 4 76 16 120 27 44 10 87 21 96 23 223 51 591 200
823 334 49 28 91 51 93 51 10 0 268 180 353 247 152 119 324 280 450 422 36
41 70 79 76 85 65 68 263 353 352 508 46 79 172 331 172 342 0 3 11 29 24 58
57 127 151 421 182 573 17 81 54 301 59 350 4 33 9 71 11 85 9 46 11 524 4
605 -15 153 -21 210 -25 225 -2 8 -7 35 -10 60 -17 129 -80 384 -136 552 -348
1038 -1164 1854 -2204 2206 -167 56 -419 119 -555 137 -19 3 -46 7 -60 10 -13
2 -52 7 -86 11 -33 3 -74 8 -90 10 -33 5 -540 14 -546 10z m1832 -1490 c356
-61 551 -236 643 -576 75 -278 64 -673 -25 -890 -59 -143 -146 -259 -255 -341
-29 -21 -57 -39 -63 -39 -20 0 -9 -18 15 -24 41 -10 157 -84 211 -134 49 -45
134 -151 134 -166 0 -5 8 -20 19 -34 24 -35 86 -191 105 -267 16 -65 23 -107
36 -200 8 -63 5 -416 -4 -473 -3 -18 -8 -50 -11 -70 -66 -447 -297 -687 -701
-729 -38 -4 -526 -7 -1084 -7 l-1015 -1 -3 872 -2 871 -323 0 -323 -1 -77
-139 c-42 -76 -77 -143 -77 -149 0 -5 -4 -9 -10 -9 -5 0 -10 -5 -10 -10 0 -6
-50 -102 -111 -213 -61 -111 -125 -227 -141 -257 -45 -82 -91 -165 -94 -168
-2 -3 -589 -4 -826 -2 l-57 0 73 127 c40 71 84 148 98 173 14 25 97 171 185
325 152 266 203 358 203 369 0 2 -15 8 -32 11 -95 21 -238 109 -301 187 -67
83 -134 233 -151 338 -3 19 -9 56 -14 81 -12 61 -15 154 -15 454 0 287 6 401
27 500 63 292 209 462 469 545 37 12 82 24 100 26 18 3 38 7 46 10 8 3 53 7
100 11 47 3 87 6 88 7 7 6 3138 -2 3173 -8z"/>
<path d="M2197 4884 c-1 -1 -28 -5 -59 -8 -95 -9 -154 -48 -191 -126 -21 -43
-22 -58 -22 -345 0 -294 0 -301 23 -347 13 -26 38 -58 56 -71 71 -54 81 -55
614 -56 l492 -2 0 476 0 475 -67 1 c-229 2 -845 4 -846 3z"/>
<path d="M3931 4404 l0 -475 432 3 c421 3 433 4 472 25 46 24 86 65 108 108
29 60 37 137 37 374 0 274 -9 324 -67 378 -60 58 -84 60 -555 61 l-426 1 -1
-475z"/>
<path d="M3931 2745 l0 -395 72 -1 c471 -4 903 1 935 12 138 45 180 141 178
399 -2 126 -5 165 -21 209 -27 73 -78 127 -142 151 -48 18 -82 19 -536 20
l-486 0 0 -395z"/>
</g>
</svg>
