<svg width="28" height="28" viewBox="0 0 28 28" fill="none" xmlns="http://www.w3.org/2000/svg">
<g clip-path="url(#clip0)">
<path fill-rule="evenodd" clip-rule="evenodd" d="M14.0042 0C21.733 0 28.0084 6.26703 28.0084 14.0042C28.0084 21.733 21.7414 28.0084 14.0042 28.0084C6.27543 28.0084 0 21.7414 0 14.0042C0 6.27543 6.26703 0 14.0042 0ZM10.5767 8.89649C11.0555 8.89649 11.4923 8.93849 11.8872 9.0225C12.282 9.10651 12.6181 9.24933 12.9037 9.43414C13.1809 9.62736 13.3993 9.87939 13.559 10.1986C13.7102 10.5095 13.7858 10.9127 13.7858 11.3747C13.7858 11.8788 13.6682 12.2988 13.4413 12.6433C13.2061 12.9793 12.8701 13.2565 12.4164 13.4749C13.0381 13.6514 13.4917 13.9622 13.7942 14.4074C14.0966 14.8527 14.2478 15.3903 14.2478 16.0204C14.2478 16.5329 14.147 16.9697 13.9538 17.3393C13.7522 17.709 13.4917 18.0114 13.1641 18.2466C12.8365 18.4818 12.45 18.6583 12.0216 18.7675C11.6016 18.8767 11.1647 18.9355 10.7111 18.9355H5.84699V8.90489H10.5767V8.89649ZM16.4909 9.70297H20.5569V10.6943H16.4909V9.70297ZM17.3981 17.1797C17.7006 17.4737 18.129 17.6166 18.6919 17.6166C19.0951 17.6166 19.4479 17.5158 19.7336 17.3141C20.0192 17.1125 20.1956 16.8941 20.2628 16.6673H22.0186C21.733 17.541 21.3045 18.1626 20.7249 18.5407C20.1452 18.9187 19.4395 19.1035 18.6247 19.1035C18.0534 19.1035 17.541 19.0111 17.0789 18.8263C16.6169 18.6415 16.2304 18.381 15.9028 18.045C15.5836 17.709 15.3399 17.3057 15.1635 16.8353C14.9955 16.3648 14.9031 15.844 14.9031 15.2895C14.9031 14.7435 14.9955 14.2394 15.1719 13.769C15.3567 13.2985 15.6004 12.8953 15.9364 12.5509C16.264 12.2064 16.6589 11.9376 17.1125 11.7444C17.5662 11.5428 18.0702 11.4503 18.6331 11.4503C19.2463 11.4503 19.784 11.568 20.246 11.8116C20.7081 12.0468 21.0861 12.3744 21.3801 12.7777C21.6742 13.1809 21.8842 13.643 22.0186 14.1554C22.153 14.6679 22.195 15.2055 22.1614 15.7768H16.9193C16.9193 16.348 17.1125 16.8941 17.4149 17.1797H17.3981ZM19.6916 13.3657C19.4563 13.1053 19.0531 12.9625 18.5659 12.9625C18.2466 12.9625 17.9862 13.0129 17.7762 13.1221C17.5662 13.2313 17.3981 13.3657 17.2721 13.5254C17.1461 13.685 17.0537 13.853 17.0033 14.0378C16.9529 14.2142 16.9193 14.3738 16.9109 14.5167H20.162C20.1116 14.0042 19.9352 13.6346 19.7 13.3657H19.6916ZM10.2994 12.9457C10.6943 12.9457 11.0135 12.8533 11.2739 12.6685C11.526 12.4836 11.652 12.1812 11.652 11.7612C11.652 11.526 11.61 11.3327 11.526 11.1815C11.4419 11.0303 11.3243 10.9127 11.1815 10.8287C11.0387 10.7447 10.8791 10.6859 10.6943 10.6523C10.5095 10.6187 10.3246 10.6019 10.1314 10.6019H8.06481V12.9457H10.2994ZM10.417 17.2133C10.6355 17.2133 10.8371 17.1965 11.0303 17.1461C11.2319 17.1041 11.3999 17.0369 11.5512 16.9361C11.694 16.8353 11.82 16.7093 11.9124 16.5329C12.0048 16.3648 12.0468 16.1464 12.0468 15.886C12.0468 15.3735 11.904 15.0039 11.61 14.7771C11.3243 14.5587 10.9379 14.4494 10.459 14.4494H8.06481V17.2133H10.4254V17.2217L10.417 17.2133Z" fill="white"/>
</g>
<defs>
<clipPath id="clip0">
<rect width="28" height="28" fill="white"/>
</clipPath>
</defs>
</svg>
