<svg width="95" height="134" viewBox="0 0 95 134" fill="none" xmlns="http://www.w3.org/2000/svg">
<g clip-path="url(#clip0)">
<path d="M74.4443 4.95839H66.5643L74.7608 13.8513V18.0807H57.8743V13.1277H66.0708L57.8743 4.23474V0H74.4496L74.4443 4.95839ZM54.5216 4.95839H46.6309L54.8381 13.8513V18.0807H37.9462V13.1277H46.1427L37.9462 4.23474V0H54.5216V4.95839ZM34.7921 5.16209H26.2898V12.924H34.7921V18.0861H20.239V0H34.7921V5.16209Z" fill="white"/>
<path d="M8.64709 123.242L0 26.3411H95L86.3422 123.226L47.441 134L8.64709 123.242Z" fill="#1572B6"/>
<path d="M47.5 125.766L78.9342 117.056L86.3261 34.2639H47.5V125.766Z" fill="#33A9DC"/>
<path d="M47.5 69.3693H63.2386L64.3221 57.2011H47.5V45.3224H77.325L77.0407 48.5119L74.1172 81.2641H47.5V69.3693Z" fill="white"/>
<path d="M47.5644 100.235H47.5107L34.2665 96.6593L33.419 87.182H21.489L23.1573 105.842L47.5215 112.617H47.5912V100.235H47.5644Z" fill="#EBEBEB"/>
<path d="M62.2301 80.7441L60.7979 96.6485L47.5322 100.224V112.607L71.9125 105.852L72.0896 103.842L74.1601 80.7388H62.2301V80.7441Z" fill="white"/>
<path d="M47.5428 45.3224V57.2065H18.8228L18.5761 54.537L18.0343 48.5119L17.75 45.3224H47.5428ZM47.4998 69.3693V81.2533H34.4058L34.1752 78.5838L33.6334 72.5587L33.3491 69.3693H47.4945H47.4998Z" fill="#EBEBEB"/>
</g>
<defs>
<clipPath id="clip0">
<rect width="95" height="134" fill="white"/>
</clipPath>
</defs>
</svg>
