<svg width="78" height="78" viewBox="0 0 78 78" fill="none" xmlns="http://www.w3.org/2000/svg">
<path fill-rule="evenodd" clip-rule="evenodd" d="M56.6777 41.8579L40.7678 57.7678C39.7915 58.7441 38.2085 58.7441 37.2322 57.7678L21.3223 41.8579C20.346 40.8816 20.346 39.2986 21.3223 38.3223C22.2986 37.346 23.8816 37.346 24.8579 38.3223L36.5 49.9645V22H41.5V49.9645L53.1421 38.3223C54.1184 37.346 55.7014 37.346 56.6777 38.3223C57.654 39.2986 57.654 40.8816 56.6777 41.8579ZM39 73C57.7777 73 73 57.7777 73 39C73 20.2223 57.7777 5 39 5C20.2223 5 5 20.2223 5 39C5 57.7777 20.2223 73 39 73ZM39 78C60.5391 78 78 60.5391 78 39C78 17.4609 60.5391 0 39 0C17.4609 0 0 17.4609 0 39C0 60.5391 17.4609 78 39 78Z" fill="white"/>
</svg>
