<svg width="27" height="27" viewBox="0 0 27 27" fill="none" xmlns="http://www.w3.org/2000/svg">
<g clip-path="url(#clip0)">
<path fill-rule="evenodd" clip-rule="evenodd" d="M13.4995 0.336343C6.04517 0.336343 0 6.38051 0 13.8358C0 19.8008 3.86767 24.8593 9.23172 26.6452C9.90689 26.7702 10.155 26.3517 10.155 25.9949C10.155 25.673 10.1416 24.6097 10.1361 23.4826C6.38006 24.2993 5.58828 21.8891 5.58828 21.8891C4.97437 20.3284 4.0894 19.9134 4.0894 19.9134C2.86462 19.0747 4.1826 19.0932 4.1826 19.0932C5.53791 19.1879 6.25147 20.4834 6.25147 20.4834C7.45635 22.5473 9.4106 21.9498 10.1804 21.6055C10.302 20.733 10.6508 20.1371 11.0375 19.7998C8.03879 19.4594 4.88666 18.3014 4.88666 13.1282C4.88666 11.6548 5.41485 10.45 6.27737 9.50516C6.13689 9.16437 5.67447 7.7921 6.40744 5.93298C6.40744 5.93298 7.54102 5.56975 10.1212 7.31673C11.1974 7.01825 12.352 6.86777 13.4985 6.86279C14.646 6.86777 15.8026 7.01775 16.8804 7.31673C19.457 5.57076 20.5896 5.93298 20.5896 5.93298C21.3235 7.7926 20.8632 9.16585 20.7226 9.50521C21.5881 10.45 22.1119 11.6548 22.1119 13.1282C22.1119 18.3134 18.9527 19.4534 15.9476 19.7878C16.4319 20.2063 16.8644 21.028 16.8644 22.2867C16.8644 24.092 16.849 25.5469 16.849 25.9909C16.849 26.3502 17.0921 26.7702 17.7768 26.6386C23.1378 24.8518 27.0005 19.7927 27.0005 13.8313C27.0005 6.37696 20.9563 0.331787 13.5005 0.331787L13.4995 0.336301L13.4995 0.336343Z" fill="white"/>
</g>
<defs>
<clipPath id="clip0">
<rect width="27" height="27" fill="white"/>
</clipPath>
</defs>
</svg>
