<svg width="96" height="134" viewBox="0 0 96 134" fill="none" xmlns="http://www.w3.org/2000/svg">
<path d="M8.73643 123.232L0 26.3376H96L87.254 123.217L47.9411 133.994L8.73643 123.232Z" fill="#E44D26"/>
<path d="M48 125.756L79.7664 117.047L87.2409 34.2605H48V125.756Z" fill="#F16529"/>
<path d="M48.0002 70.1971H32.0973L30.9988 58.0281H48.0002V46.1443H17.864L18.152 49.3325L21.1058 82.0805H48.0002V70.1971ZM48.0002 101.06L47.9474 101.074L34.5628 97.5003L33.7071 88.0229H21.6429L23.3269 106.682L47.9452 113.44L48.0002 113.424V101.06Z" fill="#EBEBEB"/>
<path d="M8.93188 0.00608826H15.0392V5.97259H20.626V0.00608826H26.7336V18.0743H20.626V12.0241H15.0392V18.0743H8.93232L8.93188 0.00608826ZM34.7655 5.99805H29.389V0.00608826H46.253V5.99805H40.8739V18.0743H34.7657V5.99805H34.7655ZM48.929 0.00608826H55.2977L59.2151 6.35489L63.1289 0.00608826H69.4998V18.0743H63.4165V9.11851L59.2145 15.5428H59.1096L54.9048 9.11851V18.0743H48.9288V0.00608826H48.929ZM72.5389 0.00608826H78.6479V12.1022H87.2373V18.0743H72.5389V0.00608826Z" fill="white"/>
<path d="M47.9585 70.1971V82.0805H62.7578L61.3625 97.493L47.9585 101.07V113.433L72.5965 106.682L72.7767 104.674L75.6013 73.3884L75.8945 70.1971H72.6562H47.9585ZM47.9585 46.1443V58.0281H76.9882L77.2289 55.3568L77.7765 49.3325L78.0641 46.1443H47.9585Z" fill="white"/>
</svg>
