<svg width="96" height="135" viewBox="0 0 96 135" fill="none" xmlns="http://www.w3.org/2000/svg">
<path d="M96 26.4546H0L9 123.952L47.9946 135L86.9892 123.952L96 26.4546Z" fill="#E6A329"/>
<path d="M47.9944 34.398V126.738L79.589 117.796L87.2755 34.398H47.9944Z" fill="#F1BF22"/>
<path d="M73.1299 46.359H24.5515L21.1677 82.863L21.238 82.6362H62.5083L61.1623 98.0802L47.9948 101.866L34.6326 98.0208L33.8326 88.6734H21.7029L23.4326 107.352L47.9948 114.318L72.5677 107.352L75.9515 70.6914H32.1515L32.7137 58.4766H63.1029L63.5569 65.475H75.7947L73.1299 46.359Z" fill="white"/>
<path d="M48.0056 46.359H24.5515L21.1677 82.863L21.238 82.6362H48.0056V70.7292H33.8596L34.4218 58.5144H48.0056V46.359ZM33.8596 88.6734H21.7029L23.4326 107.341L47.9947 114.296V101.876L34.6326 98.0208L33.8596 88.6734Z" fill="#EBEBEB"/>
<path d="M38.6595 12.0744H30.1135V18.2034H44.773V0H38.6595V12.0744ZM65.8811 0.0972H50.9838V6.4692C52.973 8.4564 54.0108 9.4122 56.9406 12.2904H50.9838V18.1008H65.8811V12.3012L59.9243 6.48H65.8811V0.0972Z" fill="white"/>
</svg>
