<svg width="28" height="28" viewBox="0 0 28 28" fill="none" xmlns="http://www.w3.org/2000/svg">
<g clip-path="url(#clip0)">
<path fill-rule="evenodd" clip-rule="evenodd" d="M14.0042 0C21.733 0 28.0084 6.26703 28.0084 14.0042C28.0084 21.733 21.7414 28.0084 14.0042 28.0084C6.27543 28.0084 0 21.7414 0 14.0042C0 6.27543 6.26703 0 14.0042 0ZM12.198 11.2235H15.0711V12.6937H15.1131C15.5164 11.9712 16.4909 11.2235 17.9526 11.2235C20.9853 11.2235 21.5482 13.1137 21.5482 15.5668V20.5737H18.5491V16.138C18.5491 15.0795 18.5239 13.7186 16.9865 13.7186C15.4239 13.7186 15.1887 14.8695 15.1887 16.0624V20.5737H12.1896V11.2235H12.198ZM10.123 8.62766C10.123 9.48455 9.42574 10.1902 8.56046 10.1902C7.70357 10.1902 6.9979 9.49295 6.9979 8.62766C6.9979 7.77078 7.69517 7.06511 8.56046 7.06511C9.41734 7.06511 10.123 7.76238 10.123 8.62766ZM7.0063 11.2235H10.123V20.5737H7.0063V11.2235Z" fill="white"/>
</g>
<defs>
<clipPath id="clip0">
<rect width="28" height="28" fill="white"/>
</clipPath>
</defs>
</svg>
