<svg width="38" height="38" viewBox="0 0 38 38" fill="none" xmlns="http://www.w3.org/2000/svg">
<path fill-rule="evenodd" clip-rule="evenodd" d="M19 38C29.4934 38 38 29.4934 38 19C38 8.50659 29.4934 0 19 0C8.50659 0 0 8.50659 0 19C0 29.4934 8.50659 38 19 38ZM16.8889 8.06062H10.9164C9.1968 8.06062 7.95214 8.45367 7.18241 9.23977C6.39631 10.0095 6.00326 11.2542 6.00326 12.9738V15.1847C6.00326 16.544 6.23254 17.6003 6.6911 18.3536C7.13328 19.107 7.84569 19.6065 8.82831 19.8521L5.75761 25.2566H10.5479L13.373 20.0978H16.8889V29.5556H27.5373C29.1552 29.5556 30.3439 29.0847 31.1033 28.143C31.8627 27.2014 32.2424 25.7274 32.2424 23.7212C32.2424 22.8819 32.1599 22.1449 31.9948 21.5103C31.516 19.7498 30.608 18.6443 29.2708 18.194C29.8981 17.8869 30.4264 17.3546 30.8556 16.5972C31.2849 15.8193 31.4995 14.8162 31.4995 13.5879C31.4995 11.725 31.1198 10.3432 30.3604 9.44244C29.6009 8.52123 28.4123 8.06062 26.7944 8.06062H21.234H16.8889ZM16.8889 16.6586V11.5001L11.899 11.4998C10.9164 11.4998 10.4251 11.9911 10.4251 12.9738V15.1847C10.4251 16.1673 10.9164 16.6586 11.899 16.6586H16.8889ZM27.7849 22.8C27.7849 21.5717 27.2897 20.9576 26.2991 20.9576H21.3464V25.2566H26.2991C27.2897 25.2566 27.7849 24.6424 27.7849 23.4142V22.8ZM27.042 13.0505C27.042 11.8222 26.5467 11.5152 25.5562 11.5152H21.3464V16.6586H25.5562C26.5467 16.6586 27.042 16.0445 27.042 14.8162V13.0505Z" fill="#B02E2E"/>
</svg>
